<?xml version="1.0" standalone="no"?>

<svg version="1.0" xmlns="http://www.w3.org/2000/svg" width="60px" height="60px" viewBox="0 0 2653.000000 2670.000000" preserveAspectRatio="xMidYMid meet">

<g transform="translate(0.000000,2670.000000) scale(0.100000,-0.100000)" fill="#ffff00" stroke="none">
<path d="M12640 26684 c-345 -63 -541 -136 -755 -278 -230 -154 -426 -378&#xA;-566 -647 -74 -142 -136 -182 -246 -160 -85 16 -164 59 -294 157 -298 226&#xA;-528 342 -777 390 -116 23 -318 23 -437 0 -198 -38 -498 -162 -677 -278 -224&#xA;-146 -397 -329 -527 -556 -63 -111 -110 -225 -159 -388 -60 -198 -100 -263&#xA;-184 -298 -75 -32 -143 -16 -367 89 -311 144 -451 181 -656 172 -230 -10 -443&#xA;-69 -680 -187 -183 -91 -302 -177 -456 -330 -221 -217 -314 -394 -378 -718&#xA;-18 -89 -34 -206 -76 -555 -26 -215 -57 -247 -240 -247 -76 0 -119 6 -183 25&#xA;-296 87 -592 40 -978 -153 -491 -246 -785 -612 -884 -1101 -44 -217 -38 -383&#xA;25 -761 19 -112 35 -226 35 -253 0 -62 -23 -111 -64 -136 -40 -25 -137 -51&#xA;-189 -51 -64 0 -277 -47 -409 -90 -153 -50 -375 -160 -490 -242 -376 -271&#xA;-590 -587 -680 -1002 -19 -86 -22 -133 -23 -316 0 -189 3 -228 23 -325 47&#xA;-219 141 -449 248 -610 68 -101 104 -173 104 -206 0 -64 -76 -117 -325 -224&#xA;-282 -122 -457 -231 -611 -381 -508 -496 -633 -1247 -314 -1886 91 -182 184&#xA;-304 381 -498 142 -140 163 -176 141 -247 -17 -58 -60 -103 -225 -236 -377&#xA;-304 -569 -556 -676 -889 -98 -307 -90 -623 24 -977 122 -376 394 -702 755&#xA;-906 192 -109 220 -127 245 -159 32 -42 33 -101 4 -159 -12 -23 -68 -106 -125&#xA;-183 -237 -326 -330 -503 -394 -748 -116 -449 -15 -931 276 -1319 129 -171&#xA;336 -343 530 -440 120 -60 208 -91 393 -136 186 -45 251 -72 291 -118 25 -28&#xA;30 -42 30 -87 0 -58 -28 -150 -85 -271 -178 -384 -225 -739 -145 -1106 27&#xA;-128 64 -230 129 -364 79 -161 163 -277 301 -416 180 -180 388 -308 630 -387&#xA;189 -62 306 -80 588 -91 226 -8 260 -19 309 -92 38 -58 36 -115 -15 -410 -41&#xA;-239 -42 -250 -32 -350 43 -421 211 -767 513 -1055 282 -270 626 -416 1012&#xA;-431 176 -7 271 4 472 52 266 64 361 64 420 1 41 -44 50 -79 68 -267 22 -220&#xA;42 -328 85 -461 82 -249 201 -440 394 -634 239 -239 465 -359 789 -421 70 -13&#xA;143 -18 307 -17 185 0 229 3 320 23 209 45 412 128 600 248 182 115 259 122&#xA;334 32 39 -46 59 -90 122 -261 116 -315 191 -437 393 -638 92 -92 167 -156&#xA;231 -199 542 -358 1212 -356 1760 6 91 60 147 108 270 233 170 171 196 192&#xA;255 209 95 26 157 -22 292 -229 275 -419 696 -679 1183 -730 301 -32 653 42&#xA;935 195 132 72 254 164 370 280 124 123 207 239 285 395 98 196 147 250 225&#xA;250 56 0 118 -36 209 -120 255 -237 484 -368 768 -441 430 -109 894 -27 1275&#xA;227 335 223 539 534 669 1016 64 242 122 304 260 283 28 -4 107 -38 199 -86&#xA;231 -119 405 -172 629 -188 184 -13 397 9 584 60 543 150 971 638 1092 1244&#xA;17 84 24 167 30 350 7 255 14 291 63 344 55 59 114 63 324 21 339 -67 604 -57&#xA;883 36 214 71 386 181 576 369 221 218 354 433 430 693 75 260 74 587 -2 872&#xA;-48 182 -67 293 -59 345 14 100 110 155 269 155 494 1 883 170 1202 522 36 40&#xA;93 113 126 162 331 494 367 1110 95 1635 -33 64 -71 139 -86 166 -21 43 -25&#xA;63 -26 140 0 79 3 96 27 140 14 28 46 69 70 90 45 42 61 50 227 115 202 79&#xA;366 187 532 350 162 160 272 320 357 520 187 437 169 892 -51 1324 -77 152&#xA;-167 270 -357 470 -160 168 -190 212 -190 274 0 73 45 117 307 297 453 312&#xA;717 865 673 1411 -48 581 -337 1011 -928 1380 -161 100 -192 130 -192 188 0&#xA;50 28 93 158 238 198 221 332 480 393 760 26 123 36 363 20 494 -54 435 -236&#xA;806 -521 1060 -208 185 -406 292 -753 405 -179 58 -224 77 -252 104 -60 56&#xA;-47 111 87 380 91 181 124 270 142 384 45 273 23 456 -100 831 -91 277 -204&#xA;462 -408 665 -138 136 -263 226 -431 309 -251 124 -494 176 -830 176 -243 1&#xA;-272 40 -225 310 97 561 -18 1026 -356 1431 -393 472 -983 661 -1569 504 -213&#xA;-57 -375 -70 -433 -35 -48 30 -62 75 -78 250 -40 448 -169 773 -418 1055 -186&#xA;210 -493 413 -760 500 -281 92 -572 85 -851 -20 -38 -15 -165 -75 -280 -135&#xA;-116 -60 -238 -116 -270 -125 -76 -20 -136 -12 -202 25 -65 38 -109 103 -182&#xA;271 -229 533 -579 884 -1016 1018 -166 51 -269 65 -470 65 -200 1 -326 -18&#xA;-485 -73 -251 -85 -403 -185 -655 -431 -180 -176 -213 -196 -310 -188 -90 8&#xA;-138 47 -272 228 -283 379 -596 604 -981 706 -81 22 -124 26 -262 29 -91 2&#xA;-176 1 -190 -1z"></path>
</g>
</svg>